# xmcd
#
# Track frame offsets: 
#        150
#        16088
#        28213
#        43157
#        68550
#
# Disc length: 1594 seconds
#
# Revision: 2
# Processed by: cddbd v1.5.2PL0 Copyright (c) Steve Scherf et al.
# Submitted via: ExactAudioCopy v1.0b3
#
DISCID=38063805
DTITLE=Annett Louisan - Teilzeithippie CD2
DYEAR=2008
DGENRE=Chanson
TTITLE0=more than you chould know
TTITLE1=silver lady
TTITLE2=mama will ins netz
TTITLE3=der depp
TTITLE4=video: drück die 1
EXTD=YEAR: 2008
EXTT0=
EXTT1=
EXTT2=
EXTT3=
EXTT4=
PLAYORDER=
